<svg xmlns="http://www.w3.org/2000/svg" xmlns:xlink="http://www.w3.org/1999/xlink" width="500" zoomAndPan="magnify" viewBox="0 0 375 374.999991" height="500" preserveAspectRatio="xMidYMid meet" version="1.0"><defs><g/><clipPath id="228bba3109"><path d="M 101.132812 144 L 273.632812 144 L 273.632812 231.691406 L 101.132812 231.691406 Z M 101.132812 144 " clip-rule="nonzero"/></clipPath></defs><rect x="-37.5" width="450" fill="#ffffff" y="-37.499999" height="449.999989" fill-opacity="1"/><rect x="-37.5" width="450" fill="#fab713" y="-37.499999" height="449.999989" fill-opacity="1"/><g clip-path="url(#228bba3109)"><path fill="#000000" d="M 151.0625 185.066406 C 151.0625 187.773438 153.257812 189.96875 155.964844 189.96875 C 158.671875 189.96875 160.863281 187.773438 160.863281 185.066406 C 160.863281 182.359375 158.671875 180.164062 155.964844 180.164062 C 153.257812 180.164062 151.0625 182.359375 151.0625 185.066406 Z M 136.558594 185.066406 C 136.558594 187.773438 138.753906 189.96875 141.460938 189.96875 C 144.164062 189.96875 146.359375 187.773438 146.359375 185.066406 C 146.359375 182.359375 144.164062 180.164062 141.460938 180.164062 C 138.753906 180.164062 136.558594 182.359375 136.558594 185.066406 Z M 121.9375 185.066406 C 121.9375 187.773438 124.128906 189.96875 126.835938 189.96875 C 129.542969 189.96875 131.734375 187.773438 131.734375 185.066406 C 131.734375 182.359375 129.542969 180.164062 126.835938 180.164062 C 124.128906 180.164062 121.9375 182.359375 121.9375 185.066406 Z M 139.421875 217.664062 C 136.839844 217.351562 134.304688 216.742188 131.878906 215.855469 C 131.140625 215.585938 130.332031 215.582031 129.59375 215.851562 L 110.425781 222.785156 L 116.34375 206.617188 C 116.71875 205.59375 116.570312 204.449219 115.945312 203.558594 C 111.230469 196.796875 109.175781 188.566406 110.164062 180.375 C 111.234375 171.488281 115.703125 163.550781 122.742188 158.023438 C 129.785156 152.496094 138.554688 150.042969 147.441406 151.113281 C 153.277344 151.816406 158.832031 154.039062 163.503906 157.542969 L 167.511719 152.195312 C 161.902344 147.992188 155.238281 145.324219 148.242188 144.480469 C 137.582031 143.195312 127.0625 146.140625 118.621094 152.769531 C 110.175781 159.398438 104.816406 168.917969 103.53125 179.578125 C 102.417969 188.8125 104.53125 198.09375 109.492188 205.910156 L 101.695312 227.214844 C 101.246094 228.433594 101.546875 229.800781 102.464844 230.71875 C 103.101562 231.359375 103.957031 231.703125 104.828125 231.703125 C 105.210938 231.703125 105.59375 231.636719 105.964844 231.503906 L 130.75 222.535156 C 133.300781 223.382812 135.945312 223.972656 138.625 224.296875 C 140.25 224.492188 141.871094 224.585938 143.484375 224.585938 C 153.855469 224.585938 163.816406 220.589844 171.390625 213.265625 L 166.746094 208.464844 C 159.449219 215.523438 149.488281 218.875 139.421875 217.664062 Z M 273.523438 178.382812 L 273.523438 172.8125 L 263.257812 172.8125 L 263.257812 160.753906 L 256.734375 162.863281 L 256.734375 172.8125 L 249.730469 172.8125 L 249.730469 178.382812 L 256.734375 178.382812 L 256.734375 202.503906 C 256.734375 210.460938 260.300781 214.441406 267.4375 214.441406 C 269.957031 214.441406 271.984375 214.015625 273.523438 213.167969 L 273.523438 207.597656 C 272.332031 208.5 270.910156 208.949219 269.265625 208.949219 C 267.121094 208.949219 265.582031 208.367188 264.652344 207.199219 C 263.722656 206.03125 263.257812 204.082031 263.257812 201.347656 L 263.257812 178.382812 Z M 240.695312 192.949219 L 230.863281 194.304688 C 227.839844 194.726562 225.558594 195.476562 224.019531 196.550781 C 222.480469 197.628906 221.710938 199.53125 221.710938 202.261719 C 221.710938 204.253906 222.421875 205.878906 223.839844 207.140625 C 225.261719 208.398438 227.148438 209.03125 229.511719 209.03125 C 232.75 209.03125 235.421875 207.894531 237.53125 205.625 C 239.640625 203.359375 240.695312 200.488281 240.695312 197.007812 Z M 247.21875 187.058594 L 247.21875 213.566406 L 240.695312 213.566406 L 240.695312 207.199219 L 240.535156 207.199219 C 237.695312 212.082031 233.515625 214.523438 228 214.523438 C 223.941406 214.523438 220.765625 213.445312 218.46875 211.296875 C 216.175781 209.148438 215.027344 206.296875 215.027344 202.742188 C 215.027344 195.125 219.511719 190.695312 228.476562 189.449219 L 240.695312 187.738281 C 240.695312 180.8125 237.894531 177.347656 232.296875 177.347656 C 227.386719 177.347656 222.957031 179.019531 219.007812 182.363281 L 219.007812 175.679688 C 223.011719 173.132812 227.628906 171.859375 232.855469 171.859375 C 242.429688 171.859375 247.21875 176.925781 247.21875 187.058594 Z M 210.644531 188.453125 L 210.644531 213.566406 L 204.121094 213.566406 L 204.121094 190.085938 C 204.121094 181.59375 200.964844 177.347656 194.648438 177.347656 C 191.464844 177.347656 188.789062 178.578125 186.613281 181.03125 C 184.4375 183.484375 183.351562 186.636719 183.351562 190.484375 L 183.351562 213.566406 L 176.824219 213.566406 L 176.824219 153.234375 L 183.351562 153.234375 L 183.351562 179.578125 L 183.507812 179.578125 C 186.636719 174.429688 191.097656 171.859375 196.878906 171.859375 C 206.054688 171.859375 210.644531 177.390625 210.644531 188.453125 " fill-opacity="1" fill-rule="nonzero"/></g><g fill="#000000" fill-opacity="1"><g transform="translate(180.93653, 228.81945)"><g><path d="M 8.40625 0 L 8.390625 -5.296875 L 5.765625 -0.90625 L 5.109375 -0.90625 L 2.484375 -5.21875 L 2.484375 0 L 1.078125 0 L 1.078125 -7.984375 L 2.296875 -7.984375 L 5.46875 -2.6875 L 8.578125 -7.984375 L 9.796875 -7.984375 L 9.8125 0 Z M 8.40625 0 "/></g></g></g><g fill="#000000" fill-opacity="1"><g transform="translate(196.034601, 228.81945)"><g><path d="M 7.0625 -1.25 L 7.0625 0 L 1.078125 0 L 1.078125 -7.984375 L 6.90625 -7.984375 L 6.90625 -6.734375 L 2.5625 -6.734375 L 2.5625 -4.671875 L 6.40625 -4.671875 L 6.40625 -3.4375 L 2.5625 -3.4375 L 2.5625 -1.25 Z M 7.0625 -1.25 "/></g></g></g><g fill="#000000" fill-opacity="1"><g transform="translate(207.88579, 228.81945)"><g><path d="M 3.546875 0.109375 C 2.929688 0.109375 2.335938 0.0234375 1.765625 -0.140625 C 1.191406 -0.316406 0.738281 -0.550781 0.40625 -0.84375 L 0.90625 -2 C 1.238281 -1.738281 1.640625 -1.523438 2.109375 -1.359375 C 2.585938 -1.203125 3.066406 -1.125 3.546875 -1.125 C 4.140625 -1.125 4.582031 -1.21875 4.875 -1.40625 C 5.164062 -1.59375 5.3125 -1.84375 5.3125 -2.15625 C 5.3125 -2.382812 5.226562 -2.570312 5.0625 -2.71875 C 4.90625 -2.863281 4.703125 -2.976562 4.453125 -3.0625 C 4.203125 -3.144531 3.859375 -3.242188 3.421875 -3.359375 C 2.816406 -3.492188 2.320312 -3.632812 1.9375 -3.78125 C 1.5625 -3.925781 1.238281 -4.148438 0.96875 -4.453125 C 0.695312 -4.765625 0.5625 -5.1875 0.5625 -5.71875 C 0.5625 -6.15625 0.679688 -6.550781 0.921875 -6.90625 C 1.160156 -7.269531 1.519531 -7.554688 2 -7.765625 C 2.488281 -7.984375 3.082031 -8.09375 3.78125 -8.09375 C 4.269531 -8.09375 4.75 -8.03125 5.21875 -7.90625 C 5.695312 -7.789062 6.101562 -7.617188 6.4375 -7.390625 L 5.984375 -6.234375 C 5.628906 -6.441406 5.257812 -6.597656 4.875 -6.703125 C 4.5 -6.804688 4.132812 -6.859375 3.78125 -6.859375 C 3.1875 -6.859375 2.75 -6.757812 2.46875 -6.5625 C 2.1875 -6.363281 2.046875 -6.101562 2.046875 -5.78125 C 2.046875 -5.550781 2.125 -5.363281 2.28125 -5.21875 C 2.445312 -5.070312 2.65625 -4.957031 2.90625 -4.875 C 3.15625 -4.789062 3.5 -4.695312 3.9375 -4.59375 C 4.53125 -4.457031 5.015625 -4.316406 5.390625 -4.171875 C 5.773438 -4.023438 6.101562 -3.796875 6.375 -3.484375 C 6.644531 -3.179688 6.78125 -2.773438 6.78125 -2.265625 C 6.78125 -1.816406 6.660156 -1.414062 6.421875 -1.0625 C 6.179688 -0.707031 5.816406 -0.421875 5.328125 -0.203125 C 4.835938 0.00390625 4.242188 0.109375 3.546875 0.109375 Z M 3.546875 0.109375 "/></g></g></g><g fill="#000000" fill-opacity="1"><g transform="translate(219.269884, 228.81945)"><g><path d="M 3.546875 0.109375 C 2.929688 0.109375 2.335938 0.0234375 1.765625 -0.140625 C 1.191406 -0.316406 0.738281 -0.550781 0.40625 -0.84375 L 0.90625 -2 C 1.238281 -1.738281 1.640625 -1.523438 2.109375 -1.359375 C 2.585938 -1.203125 3.066406 -1.125 3.546875 -1.125 C 4.140625 -1.125 4.582031 -1.21875 4.875 -1.40625 C 5.164062 -1.59375 5.3125 -1.84375 5.3125 -2.15625 C 5.3125 -2.382812 5.226562 -2.570312 5.0625 -2.71875 C 4.90625 -2.863281 4.703125 -2.976562 4.453125 -3.0625 C 4.203125 -3.144531 3.859375 -3.242188 3.421875 -3.359375 C 2.816406 -3.492188 2.320312 -3.632812 1.9375 -3.78125 C 1.5625 -3.925781 1.238281 -4.148438 0.96875 -4.453125 C 0.695312 -4.765625 0.5625 -5.1875 0.5625 -5.71875 C 0.5625 -6.15625 0.679688 -6.550781 0.921875 -6.90625 C 1.160156 -7.269531 1.519531 -7.554688 2 -7.765625 C 2.488281 -7.984375 3.082031 -8.09375 3.78125 -8.09375 C 4.269531 -8.09375 4.75 -8.03125 5.21875 -7.90625 C 5.695312 -7.789062 6.101562 -7.617188 6.4375 -7.390625 L 5.984375 -6.234375 C 5.628906 -6.441406 5.257812 -6.597656 4.875 -6.703125 C 4.5 -6.804688 4.132812 -6.859375 3.78125 -6.859375 C 3.1875 -6.859375 2.75 -6.757812 2.46875 -6.5625 C 2.1875 -6.363281 2.046875 -6.101562 2.046875 -5.78125 C 2.046875 -5.550781 2.125 -5.363281 2.28125 -5.21875 C 2.445312 -5.070312 2.65625 -4.957031 2.90625 -4.875 C 3.15625 -4.789062 3.5 -4.695312 3.9375 -4.59375 C 4.53125 -4.457031 5.015625 -4.316406 5.390625 -4.171875 C 5.773438 -4.023438 6.101562 -3.796875 6.375 -3.484375 C 6.644531 -3.179688 6.78125 -2.773438 6.78125 -2.265625 C 6.78125 -1.816406 6.660156 -1.414062 6.421875 -1.0625 C 6.179688 -0.707031 5.816406 -0.421875 5.328125 -0.203125 C 4.835938 0.00390625 4.242188 0.109375 3.546875 0.109375 Z M 3.546875 0.109375 "/></g></g></g><g fill="#000000" fill-opacity="1"><g transform="translate(230.65398, 228.81945)"><g><path d="M 6.25 -1.84375 L 2.265625 -1.84375 L 1.46875 0 L -0.0625 0 L 3.53125 -7.984375 L 5 -7.984375 L 8.59375 0 L 7.046875 0 Z M 5.765625 -3.015625 L 4.25 -6.5 L 2.765625 -3.015625 Z M 5.765625 -3.015625 "/></g></g></g><g fill="#000000" fill-opacity="1"><g transform="translate(243.405186, 228.81945)"><g><path d="M 6.53125 -4.078125 L 7.921875 -4.078125 L 7.921875 -0.90625 C 7.515625 -0.570312 7.035156 -0.316406 6.484375 -0.140625 C 5.941406 0.0234375 5.378906 0.109375 4.796875 0.109375 C 3.984375 0.109375 3.25 -0.0664062 2.59375 -0.421875 C 1.945312 -0.773438 1.4375 -1.257812 1.0625 -1.875 C 0.6875 -2.5 0.5 -3.203125 0.5 -3.984375 C 0.5 -4.773438 0.6875 -5.476562 1.0625 -6.09375 C 1.4375 -6.71875 1.953125 -7.207031 2.609375 -7.5625 C 3.265625 -7.914062 4.003906 -8.09375 4.828125 -8.09375 C 5.492188 -8.09375 6.097656 -7.984375 6.640625 -7.765625 C 7.191406 -7.546875 7.65625 -7.222656 8.03125 -6.796875 L 7.09375 -5.890625 C 6.488281 -6.492188 5.753906 -6.796875 4.890625 -6.796875 C 4.328125 -6.796875 3.828125 -6.675781 3.390625 -6.4375 C 2.953125 -6.207031 2.609375 -5.878906 2.359375 -5.453125 C 2.117188 -5.023438 2 -4.535156 2 -3.984375 C 2 -3.453125 2.117188 -2.972656 2.359375 -2.546875 C 2.609375 -2.128906 2.953125 -1.796875 3.390625 -1.546875 C 3.828125 -1.304688 4.320312 -1.1875 4.875 -1.1875 C 5.5 -1.1875 6.050781 -1.320312 6.53125 -1.59375 Z M 6.53125 -4.078125 "/></g></g></g><g fill="#000000" fill-opacity="1"><g transform="translate(256.418419, 228.81945)"><g><path d="M 7.0625 -1.25 L 7.0625 0 L 1.078125 0 L 1.078125 -7.984375 L 6.90625 -7.984375 L 6.90625 -6.734375 L 2.5625 -6.734375 L 2.5625 -4.671875 L 6.40625 -4.671875 L 6.40625 -3.4375 L 2.5625 -3.4375 L 2.5625 -1.25 Z M 7.0625 -1.25 "/></g></g></g></svg>